<?xml version="1.0" encoding="UTF-8" standalone="no"?><!DOCTYPE svg PUBLIC "-//W3C//DTD SVG 1.1//EN" "http://www.w3.org/Graphics/SVG/1.1/DTD/svg11.dtd"><svg width="100%" height="100%" viewBox="0 0 1057 947" version="1.1" xmlns="http://www.w3.org/2000/svg" xmlns:xlink="http://www.w3.org/1999/xlink" xml:space="preserve" xmlns:serif="http://www.serif.com/" style="fill-rule:evenodd;clip-rule:evenodd;stroke-miterlimit:10;"><rect id="Artboard1" x="0" y="0" width="1056.83" height="946.672" style="fill:none;"/><clipPath id="_clip1"><rect x="0" y="0" width="1056.83" height="946.672"/></clipPath><g clip-path="url(#_clip1)"><g id="Layer-1" serif:id="Layer 1"><path d="M395.026,615.636c-12.804,-33.713 -51.421,-58.213 -97.083,-58.213c-45.659,0 -84.28,24.5 -97.084,58.213c-2.829,6.2 -4.512,13.754 -4.512,21.933l-0,146.733c-0,20.984 10.954,37.992 24.462,37.992l154.267,0c13.512,0 24.462,-17.008 24.462,-37.992l0,-146.733c0,-8.179 -1.679,-15.733 -4.512,-21.933" style="fill:#9e83a2;fill-rule:nonzero;"/><path d="M793.591,615.636c-12.804,-33.713 -51.421,-58.213 -97.083,-58.213c-45.659,0 -84.28,24.5 -97.084,58.213c-2.829,6.2 -4.512,13.754 -4.512,21.933l-0,146.733c-0,20.984 10.954,37.992 24.462,37.992l154.267,0c13.512,0 24.462,-17.008 24.462,-37.992l0,-146.733c0,-8.179 -1.679,-15.733 -4.512,-21.933" style="fill:#9e83a2;fill-rule:nonzero;"/><path d="M615.386,612.616c-16.388,-40.258 -65.825,-69.508 -124.28,-69.508c-58.45,-0 -107.887,29.25 -124.275,69.508c-3.625,7.404 -5.775,16.425 -5.775,26.192l0,175.208c0,25.054 14.017,45.363 31.313,45.363l197.479,-0c17.296,-0 31.313,-20.309 31.313,-45.363l-0,-175.208c-0,-9.767 -2.15,-18.788 -5.775,-26.192Z" style="fill:#904683;fill-rule:nonzero;stroke:#47394a;stroke-width:8.33px;"/><path d="M769.645,479.697c-0,40.392 -32.746,73.138 -73.138,73.138c-40.391,-0 -73.133,-32.746 -73.133,-73.138c-0,-40.391 32.742,-73.137 73.133,-73.137c40.392,-0 73.138,32.746 73.138,73.137" style="fill:#9e83a2;fill-rule:nonzero;"/><path d="M369.549,479.697c0,40.392 -32.746,73.138 -73.137,73.138c-40.392,-0 -73.134,-32.746 -73.134,-73.138c0,-40.391 32.742,-73.137 73.134,-73.137c40.391,-0 73.137,32.746 73.137,73.137" style="fill:#9e83a2;fill-rule:nonzero;"/><path d="M594.914,436.242c-0,57.329 -46.475,103.804 -103.804,103.804c-57.334,0 -103.809,-46.475 -103.809,-103.804c0,-57.329 46.475,-103.804 103.809,-103.804c57.329,-0 103.804,46.475 103.804,103.804" style="fill:#904683;fill-rule:nonzero;"/><path d="M594.914,436.242c-0,-57.291 -46.514,-103.804 -103.806,-103.804c-57.293,-0 -103.807,46.513 -103.807,103.804c0,57.291 46.514,103.804 103.807,103.804c57.292,0 103.806,-46.513 103.806,-103.804Z" style="fill:none;stroke:#47394a;stroke-width:8.33px;"/><path d="M487.386,427.73c-0,15.15 -12.279,27.429 -27.429,27.429c-15.146,0 -27.429,-12.279 -27.429,-27.429c-0,-15.15 12.283,-27.429 27.429,-27.429c15.15,0 27.429,12.279 27.429,27.429" style="fill:#914684;fill-rule:nonzero;"/><path d="M487.386,427.73c-0,-15.138 -12.291,-27.429 -27.429,-27.429c-15.139,0 -27.429,12.291 -27.429,27.429c-0,15.139 12.29,27.429 27.429,27.429c15.138,0 27.429,-12.29 27.429,-27.429Z" style="fill:none;stroke:#fff;stroke-width:12.5px;"/><path d="M550.006,427.73c-0,15.15 -12.28,27.429 -27.43,27.429c-15.145,0 -27.429,-12.279 -27.429,-27.429c0,-15.15 12.284,-27.429 27.429,-27.429c15.15,0 27.43,12.279 27.43,27.429" style="fill:#914684;fill-rule:nonzero;"/><path d="M550.006,427.73c-0,-15.138 -12.291,-27.429 -27.43,-27.429c-15.138,0 -27.429,12.291 -27.429,27.429c0,15.139 12.291,27.429 27.429,27.429c15.139,0 27.43,-12.29 27.43,-27.429Z" style="fill:none;stroke:#fff;stroke-width:12.5px;"/><path d="M572.881,427.73l-18.242,0l18.242,0Z" style="fill:none;fill-rule:nonzero;stroke:#fff;stroke-width:12.5px;stroke-linecap:round;stroke-linejoin:round;"/><path d="M428.694,427.731l-18.242,0l18.242,0Z" style="fill:#fff;fill-rule:nonzero;stroke:#fff;stroke-width:12.5px;stroke-linecap:round;stroke-linejoin:round;"/><path d="M150.595,721.863c45.754,-6.288 412.25,-3.004 483.583,-0.546c122.63,4.229 72.334,53.987 -31.379,48.558c-134.396,-7.041 -130.729,-4.383 -140.475,-7.158c-16.166,-4.6 89.596,40.687 145.538,39.867c69.841,-1.021 169.271,-83.6 196.908,-101.342c71.704,-46.017 101.975,-4.892 70.8,47.508c-23.287,39.15 -121.967,107.617 -179.062,135.613c-59.567,29.208 -161.7,42.646 -325.43,13.383c-179.554,-32.087 -276.27,-168.217 -220.483,-175.883" style="fill:#ee9d5d;fill-rule:nonzero;"/><path d="M150.595,721.863c45.754,-6.288 412.25,-3.004 483.583,-0.546c122.63,4.229 72.334,53.987 -31.379,48.558c-134.396,-7.041 -130.729,-4.383 -140.475,-7.158c-16.166,-4.6 89.596,40.687 145.538,39.867c69.841,-1.021 169.271,-83.6 196.908,-101.342c71.704,-46.017 101.975,-4.892 70.8,47.508c-23.287,39.15 -121.967,107.617 -179.062,135.613c-59.567,29.208 -161.7,42.646 -325.43,13.383c-179.554,-32.087 -276.27,-168.217 -220.483,-175.883Z" style="fill:none;fill-rule:nonzero;stroke:#47394a;stroke-width:8.33px;stroke-linecap:round;stroke-linejoin:bevel;"/><path d="M191.46,719.626c103.208,-3.221 431.912,1.371 478.796,0.621c66.045,-1.063 59.866,81.775 -17.063,85.867c-76.929,4.087 -78.337,1.437 -133.612,-0" style="fill:#ee9d5d;fill-rule:nonzero;stroke:#47394a;stroke-width:8.33px;stroke-linecap:round;stroke-linejoin:round;"/><path d="M509.518,571.117c-0.933,-2.909 -3.417,-5.638 -6.829,-5.638l-19.771,0c-3.45,0 -6.362,2.017 -7.246,5.538l-18.691,75.391c-0,1.075 0.325,2.079 0.883,2.942c0.058,0.104 0.112,0.212 0.183,0.321l29.679,43.996c1.596,2.366 5.334,2.366 6.93,-0l29.679,-43.996c0.183,-0.271 0.312,-0.546 0.412,-0.825c0.379,-0.742 0.596,-1.567 0.438,-3.204l-15.667,-74.525Z" style="fill:#fff;fill-rule:nonzero;"/><g transform="matrix(4.16667,0,0,4.16667,-673.061,-258.429)"><g transform="matrix(0.24,0,0,0.24,156.387,76.7396)"><g transform="matrix(83.3333,0,0,83.3333,312.984,236.806)"><path d="M0.497,-0.524c-0.004,-0.005 -0.013,-0.011 -0.025,-0.019c-0.013,-0.008 -0.028,-0.015 -0.045,-0.023c-0.018,-0.008 -0.037,-0.014 -0.058,-0.019c-0.02,-0.006 -0.041,-0.009 -0.063,-0.009c-0.037,0 -0.066,0.007 -0.085,0.021c-0.019,0.014 -0.028,0.033 -0.028,0.059c-0,0.019 0.006,0.035 0.018,0.046c0.012,0.011 0.03,0.021 0.054,0.029c0.024,0.008 0.054,0.016 0.09,0.026c0.047,0.011 0.087,0.026 0.122,0.042c0.034,0.016 0.06,0.037 0.079,0.064c0.018,0.026 0.027,0.061 0.027,0.104c0,0.038 -0.007,0.071 -0.021,0.097c-0.014,0.027 -0.033,0.049 -0.058,0.066c-0.024,0.017 -0.052,0.029 -0.084,0.036c-0.032,0.008 -0.065,0.012 -0.1,0.012c-0.035,-0 -0.071,-0.004 -0.106,-0.011c-0.036,-0.008 -0.07,-0.018 -0.102,-0.032c-0.033,-0.013 -0.063,-0.03 -0.09,-0.049l0.061,-0.119c0.006,0.006 0.017,0.014 0.032,0.024c0.015,0.009 0.034,0.019 0.056,0.028c0.022,0.01 0.046,0.018 0.072,0.025c0.026,0.007 0.052,0.01 0.079,0.01c0.038,0 0.066,-0.006 0.085,-0.019c0.019,-0.012 0.029,-0.031 0.029,-0.054c-0,-0.021 -0.008,-0.038 -0.023,-0.05c-0.015,-0.012 -0.037,-0.023 -0.064,-0.032c-0.028,-0.009 -0.06,-0.018 -0.097,-0.029c-0.045,-0.012 -0.082,-0.027 -0.112,-0.043c-0.03,-0.015 -0.053,-0.035 -0.067,-0.059c-0.015,-0.024 -0.022,-0.054 -0.022,-0.09c-0,-0.049 0.011,-0.089 0.034,-0.123c0.024,-0.033 0.055,-0.058 0.094,-0.075c0.04,-0.017 0.083,-0.025 0.131,-0.025c0.033,-0 0.065,0.003 0.095,0.011c0.029,0.007 0.057,0.017 0.083,0.029c0.026,0.012 0.049,0.025 0.07,0.039l-0.061,0.112Z" style="fill:none;fill-rule:nonzero;stroke:#000;stroke-width:0.03px;stroke-linejoin:round;stroke-miterlimit:2;"/></g><g transform="matrix(83.3333,0,0,83.3333,363.686,236.806)"><path d="M0.377,0.005c-0.052,0 -0.099,-0.01 -0.141,-0.03c-0.043,-0.02 -0.079,-0.047 -0.109,-0.082c-0.031,-0.034 -0.055,-0.073 -0.071,-0.116c-0.016,-0.043 -0.025,-0.087 -0.025,-0.132c0,-0.048 0.009,-0.093 0.027,-0.136c0.017,-0.043 0.041,-0.081 0.073,-0.115c0.031,-0.033 0.068,-0.06 0.11,-0.079c0.042,-0.02 0.088,-0.03 0.139,-0.03c0.051,0 0.098,0.011 0.14,0.031c0.043,0.021 0.079,0.048 0.109,0.083c0.03,0.035 0.054,0.073 0.07,0.116c0.017,0.043 0.025,0.087 0.025,0.132c-0,0.047 -0.009,0.092 -0.026,0.135c-0.017,0.043 -0.041,0.081 -0.072,0.114c-0.032,0.034 -0.068,0.061 -0.111,0.08c-0.042,0.02 -0.088,0.029 -0.138,0.029Zm-0.206,-0.36c-0,0.031 0.004,0.061 0.014,0.089c0.009,0.029 0.023,0.054 0.04,0.076c0.018,0.023 0.04,0.04 0.065,0.053c0.026,0.013 0.055,0.02 0.088,0.02c0.034,-0 0.063,-0.007 0.089,-0.02c0.026,-0.014 0.047,-0.032 0.065,-0.055c0.017,-0.023 0.03,-0.049 0.039,-0.077c0.009,-0.028 0.014,-0.057 0.014,-0.086c-0,-0.031 -0.005,-0.06 -0.015,-0.089c-0.009,-0.028 -0.023,-0.053 -0.041,-0.076c-0.017,-0.022 -0.039,-0.04 -0.065,-0.052c-0.025,-0.013 -0.054,-0.02 -0.086,-0.02c-0.034,0 -0.063,0.007 -0.089,0.021c-0.026,0.013 -0.047,0.031 -0.065,0.054c-0.017,0.022 -0.031,0.048 -0.04,0.076c-0.009,0.028 -0.013,0.057 -0.013,0.086Z" style="fill:none;fill-rule:nonzero;stroke:#000;stroke-width:0.03px;stroke-linejoin:round;stroke-miterlimit:2;"/></g><g transform="matrix(83.3333,0,0,83.3333,426.31,236.806)"><path d="M0.074,-0l0,-0.71l0.138,0l-0,0.589l0.362,0l0,0.121l-0.5,-0Z" style="fill:none;fill-rule:nonzero;stroke:#000;stroke-width:0.03px;stroke-linejoin:round;stroke-miterlimit:2;"/></g><g transform="matrix(83.3333,0,0,83.3333,473.082,236.806)"><path d="M0.375,0.005c-0.057,0 -0.105,-0.009 -0.145,-0.028c-0.039,-0.02 -0.071,-0.046 -0.095,-0.079c-0.025,-0.033 -0.043,-0.071 -0.054,-0.114c-0.011,-0.042 -0.017,-0.086 -0.017,-0.132l0,-0.362l0.138,0l-0,0.362c-0,0.029 0.003,0.058 0.008,0.086c0.006,0.027 0.016,0.052 0.029,0.074c0.014,0.022 0.031,0.039 0.053,0.052c0.022,0.013 0.05,0.019 0.082,0.019c0.034,-0 0.061,-0.007 0.083,-0.019c0.023,-0.013 0.04,-0.031 0.053,-0.053c0.014,-0.022 0.023,-0.047 0.029,-0.075c0.006,-0.027 0.009,-0.055 0.009,-0.084l0,-0.362l0.137,0l0,0.362c0,0.048 -0.006,0.094 -0.017,0.137c-0.012,0.043 -0.031,0.08 -0.056,0.113c-0.025,0.032 -0.057,0.057 -0.096,0.076c-0.039,0.018 -0.086,0.027 -0.141,0.027Z" style="fill:none;fill-rule:nonzero;stroke:#000;stroke-width:0.03px;stroke-linejoin:round;stroke-miterlimit:2;"/></g><g transform="matrix(83.3333,0,0,83.3333,535.2,236.806)"><path d="M0.605,-0.589l-0.227,-0l0,0.589l-0.137,-0l-0,-0.589l-0.227,-0l-0,-0.121l0.591,0l-0,0.121Z" style="fill:none;fill-rule:nonzero;stroke:#000;stroke-width:0.03px;stroke-linejoin:round;stroke-miterlimit:2;"/></g><g transform="matrix(83.3333,0,0,83.3333,586.394,236.806)"><rect x="0.074" y="-0.71" width="0.137" height="0.71" style="fill:none;fill-rule:nonzero;stroke:#000;stroke-width:0.03px;stroke-linejoin:round;stroke-miterlimit:2;"/></g><g transform="matrix(83.3333,0,0,83.3333,609.854,236.806)"><path d="M0.377,0.005c-0.052,0 -0.099,-0.01 -0.141,-0.03c-0.043,-0.02 -0.079,-0.047 -0.109,-0.082c-0.031,-0.034 -0.055,-0.073 -0.071,-0.116c-0.016,-0.043 -0.025,-0.087 -0.025,-0.132c0,-0.048 0.009,-0.093 0.027,-0.136c0.017,-0.043 0.041,-0.081 0.073,-0.115c0.031,-0.033 0.068,-0.06 0.11,-0.079c0.042,-0.02 0.088,-0.03 0.139,-0.03c0.051,0 0.098,0.011 0.14,0.031c0.043,0.021 0.079,0.048 0.109,0.083c0.03,0.035 0.054,0.073 0.07,0.116c0.017,0.043 0.025,0.087 0.025,0.132c-0,0.047 -0.009,0.092 -0.026,0.135c-0.017,0.043 -0.041,0.081 -0.072,0.114c-0.032,0.034 -0.068,0.061 -0.111,0.08c-0.042,0.02 -0.088,0.029 -0.138,0.029Zm-0.206,-0.36c-0,0.031 0.004,0.061 0.014,0.089c0.009,0.029 0.023,0.054 0.04,0.076c0.018,0.023 0.04,0.04 0.065,0.053c0.026,0.013 0.055,0.02 0.088,0.02c0.034,-0 0.063,-0.007 0.089,-0.02c0.026,-0.014 0.047,-0.032 0.065,-0.055c0.017,-0.023 0.03,-0.049 0.039,-0.077c0.009,-0.028 0.014,-0.057 0.014,-0.086c-0,-0.031 -0.005,-0.06 -0.015,-0.089c-0.009,-0.028 -0.023,-0.053 -0.041,-0.076c-0.017,-0.022 -0.039,-0.04 -0.065,-0.052c-0.025,-0.013 -0.054,-0.02 -0.086,-0.02c-0.034,0 -0.063,0.007 -0.089,0.021c-0.026,0.013 -0.047,0.031 -0.065,0.054c-0.017,0.022 -0.031,0.048 -0.04,0.076c-0.009,0.028 -0.013,0.057 -0.013,0.086Z" style="fill:none;fill-rule:nonzero;stroke:#000;stroke-width:0.03px;stroke-linejoin:round;stroke-miterlimit:2;"/></g><g transform="matrix(83.3333,0,0,83.3333,672.478,236.806)"><path d="M0.212,-0.456l-0,0.456l-0.138,-0l0,-0.71l0.11,0l0.367,0.468l0,-0.467l0.138,-0l-0,0.709l-0.115,-0l-0.362,-0.456Z" style="fill:none;fill-rule:nonzero;stroke:#000;stroke-width:0.03px;stroke-linejoin:round;stroke-miterlimit:2;"/></g><g transform="matrix(83.3333,0,0,83.3333,735.694,236.806)"><path d="M0.497,-0.524c-0.004,-0.005 -0.013,-0.011 -0.025,-0.019c-0.013,-0.008 -0.028,-0.015 -0.045,-0.023c-0.018,-0.008 -0.037,-0.014 -0.058,-0.019c-0.02,-0.006 -0.041,-0.009 -0.063,-0.009c-0.037,0 -0.066,0.007 -0.085,0.021c-0.019,0.014 -0.028,0.033 -0.028,0.059c-0,0.019 0.006,0.035 0.018,0.046c0.012,0.011 0.03,0.021 0.054,0.029c0.024,0.008 0.054,0.016 0.09,0.026c0.047,0.011 0.087,0.026 0.122,0.042c0.034,0.016 0.06,0.037 0.079,0.064c0.018,0.026 0.027,0.061 0.027,0.104c0,0.038 -0.007,0.071 -0.021,0.097c-0.014,0.027 -0.033,0.049 -0.058,0.066c-0.024,0.017 -0.052,0.029 -0.084,0.036c-0.032,0.008 -0.065,0.012 -0.1,0.012c-0.035,-0 -0.071,-0.004 -0.106,-0.011c-0.036,-0.008 -0.07,-0.018 -0.102,-0.032c-0.033,-0.013 -0.063,-0.03 -0.09,-0.049l0.061,-0.119c0.006,0.006 0.017,0.014 0.032,0.024c0.015,0.009 0.034,0.019 0.056,0.028c0.022,0.01 0.046,0.018 0.072,0.025c0.026,0.007 0.052,0.01 0.079,0.01c0.038,0 0.066,-0.006 0.085,-0.019c0.019,-0.012 0.029,-0.031 0.029,-0.054c-0,-0.021 -0.008,-0.038 -0.023,-0.05c-0.015,-0.012 -0.037,-0.023 -0.064,-0.032c-0.028,-0.009 -0.06,-0.018 -0.097,-0.029c-0.045,-0.012 -0.082,-0.027 -0.112,-0.043c-0.03,-0.015 -0.053,-0.035 -0.067,-0.059c-0.015,-0.024 -0.022,-0.054 -0.022,-0.09c-0,-0.049 0.011,-0.089 0.034,-0.123c0.024,-0.033 0.055,-0.058 0.094,-0.075c0.04,-0.017 0.083,-0.025 0.131,-0.025c0.033,-0 0.065,0.003 0.095,0.011c0.029,0.007 0.057,0.017 0.083,0.029c0.026,0.012 0.049,0.025 0.07,0.039l-0.061,0.112Z" style="fill:none;fill-rule:nonzero;stroke:#000;stroke-width:0.03px;stroke-linejoin:round;stroke-miterlimit:2;"/></g><g transform="matrix(83.3333,0,0,83.3333,786.745,236.806)"></g></g><g transform="matrix(0.24,0,0,0.24,156.387,76.7396)"><g transform="matrix(83.3333,0,0,83.3333,264.705,161.806)"><path d="M0.646,-0.183c-0,0.04 -0.011,0.073 -0.031,0.1c-0.021,0.027 -0.048,0.048 -0.083,0.062c-0.035,0.014 -0.073,0.021 -0.115,0.021l-0.343,-0l0,-0.71l0.38,0c0.033,0 0.062,0.009 0.086,0.026c0.025,0.018 0.043,0.041 0.056,0.069c0.013,0.028 0.02,0.056 0.02,0.086c-0,0.034 -0.009,0.066 -0.026,0.097c-0.018,0.03 -0.043,0.053 -0.076,0.068c0.04,0.012 0.073,0.034 0.096,0.065c0.024,0.031 0.036,0.07 0.036,0.116Zm-0.139,-0.026c-0,-0.018 -0.004,-0.034 -0.011,-0.048c-0.008,-0.014 -0.017,-0.026 -0.03,-0.034c-0.012,-0.009 -0.026,-0.013 -0.042,-0.013l-0.212,-0l-0,0.187l0.205,0c0.016,0 0.032,-0.004 0.045,-0.012c0.014,-0.009 0.025,-0.02 0.033,-0.034c0.008,-0.014 0.012,-0.029 0.012,-0.046Zm-0.295,-0.383l-0,0.179l0.184,-0c0.015,-0 0.029,-0.004 0.042,-0.011c0.012,-0.007 0.023,-0.017 0.03,-0.031c0.008,-0.013 0.012,-0.029 0.012,-0.048c-0,-0.018 -0.004,-0.034 -0.01,-0.047c-0.007,-0.013 -0.017,-0.024 -0.028,-0.031c-0.012,-0.008 -0.026,-0.011 -0.04,-0.011l-0.19,-0Z" style="fill:#47394a;fill-rule:nonzero;"/></g><g transform="matrix(83.3333,0,0,83.3333,320.988,161.806)"><path d="M0.074,-0l0,-0.71l0.138,0l-0,0.589l0.362,0l0,0.121l-0.5,-0Z" style="fill:#47394a;fill-rule:nonzero;"/></g><g transform="matrix(83.3333,0,0,83.3333,368.01,161.806)"><path d="M0.377,0.005c-0.052,0 -0.099,-0.01 -0.141,-0.03c-0.043,-0.02 -0.079,-0.047 -0.109,-0.082c-0.031,-0.034 -0.055,-0.073 -0.071,-0.116c-0.016,-0.043 -0.025,-0.087 -0.025,-0.132c0,-0.048 0.009,-0.093 0.027,-0.136c0.017,-0.043 0.041,-0.081 0.073,-0.115c0.031,-0.033 0.068,-0.06 0.11,-0.079c0.042,-0.02 0.088,-0.03 0.139,-0.03c0.051,0 0.098,0.011 0.14,0.031c0.043,0.021 0.079,0.048 0.109,0.083c0.03,0.035 0.054,0.073 0.07,0.116c0.017,0.043 0.025,0.087 0.025,0.132c-0,0.047 -0.009,0.092 -0.026,0.135c-0.017,0.043 -0.041,0.081 -0.072,0.114c-0.032,0.034 -0.068,0.061 -0.111,0.08c-0.042,0.02 -0.088,0.029 -0.138,0.029Zm-0.206,-0.36c-0,0.031 0.004,0.061 0.014,0.089c0.009,0.029 0.023,0.054 0.04,0.076c0.018,0.023 0.04,0.04 0.065,0.053c0.026,0.013 0.055,0.02 0.088,0.02c0.034,-0 0.063,-0.007 0.089,-0.02c0.026,-0.014 0.047,-0.032 0.065,-0.055c0.017,-0.023 0.03,-0.049 0.039,-0.077c0.009,-0.028 0.014,-0.057 0.014,-0.086c-0,-0.031 -0.005,-0.06 -0.015,-0.089c-0.009,-0.028 -0.023,-0.053 -0.041,-0.076c-0.017,-0.022 -0.039,-0.04 -0.065,-0.052c-0.025,-0.013 -0.054,-0.02 -0.086,-0.02c-0.034,0 -0.063,0.007 -0.089,0.021c-0.026,0.013 -0.047,0.031 -0.065,0.054c-0.017,0.022 -0.031,0.048 -0.04,0.076c-0.009,0.028 -0.013,0.057 -0.013,0.086Z" style="fill:#47394a;fill-rule:nonzero;"/></g><g transform="matrix(83.3333,0,0,83.3333,430.634,161.806)"><path d="M0.377,0.005c-0.052,0 -0.099,-0.01 -0.141,-0.03c-0.043,-0.02 -0.079,-0.047 -0.109,-0.082c-0.031,-0.034 -0.055,-0.073 -0.071,-0.116c-0.016,-0.043 -0.025,-0.087 -0.025,-0.132c0,-0.048 0.009,-0.093 0.027,-0.136c0.017,-0.043 0.041,-0.081 0.073,-0.115c0.031,-0.033 0.068,-0.06 0.11,-0.079c0.042,-0.02 0.088,-0.03 0.139,-0.03c0.051,0 0.098,0.011 0.14,0.031c0.043,0.021 0.079,0.048 0.109,0.083c0.03,0.035 0.054,0.073 0.07,0.116c0.017,0.043 0.025,0.087 0.025,0.132c-0,0.047 -0.009,0.092 -0.026,0.135c-0.017,0.043 -0.041,0.081 -0.072,0.114c-0.032,0.034 -0.068,0.061 -0.111,0.08c-0.042,0.02 -0.088,0.029 -0.138,0.029Zm-0.206,-0.36c-0,0.031 0.004,0.061 0.014,0.089c0.009,0.029 0.023,0.054 0.04,0.076c0.018,0.023 0.04,0.04 0.065,0.053c0.026,0.013 0.055,0.02 0.088,0.02c0.034,-0 0.063,-0.007 0.089,-0.02c0.026,-0.014 0.047,-0.032 0.065,-0.055c0.017,-0.023 0.03,-0.049 0.039,-0.077c0.009,-0.028 0.014,-0.057 0.014,-0.086c-0,-0.031 -0.005,-0.06 -0.015,-0.089c-0.009,-0.028 -0.023,-0.053 -0.041,-0.076c-0.017,-0.022 -0.039,-0.04 -0.065,-0.052c-0.025,-0.013 -0.054,-0.02 -0.086,-0.02c-0.034,0 -0.063,0.007 -0.089,0.021c-0.026,0.013 -0.047,0.031 -0.065,0.054c-0.017,0.022 -0.031,0.048 -0.04,0.076c-0.009,0.028 -0.013,0.057 -0.013,0.086Z" style="fill:#47394a;fill-rule:nonzero;"/></g><g transform="matrix(83.3333,0,0,83.3333,493.258,161.806)"><path d="M0.653,-0l0,-0.466l-0.182,0.347l-0.077,0l-0.182,-0.347l-0,0.466l-0.138,-0l0,-0.71l0.148,0l0.21,0.404l0.212,-0.404l0.147,0l-0,0.71l-0.138,-0Z" style="fill:#47394a;fill-rule:nonzero;"/></g><g transform="matrix(83.3333,0,0,83.3333,564.991,161.806)"><path d="M0.317,-0.708l0.128,0l0.081,0.235l0.082,-0.235l0.127,0l-0.122,0.323l0.09,0.226l0.201,-0.551l0.15,0l-0.284,0.71l-0.119,-0l-0.125,-0.298l-0.124,0.298l-0.119,-0l-0.283,-0.71l0.148,0l0.202,0.551l0.088,-0.226l-0.121,-0.323Z" style="fill:#47394a;fill-rule:nonzero;"/></g><g transform="matrix(83.3333,0,0,83.3333,650.11,161.806)"><path d="M0.377,0.005c-0.052,0 -0.099,-0.01 -0.141,-0.03c-0.043,-0.02 -0.079,-0.047 -0.109,-0.082c-0.031,-0.034 -0.055,-0.073 -0.071,-0.116c-0.016,-0.043 -0.025,-0.087 -0.025,-0.132c0,-0.048 0.009,-0.093 0.027,-0.136c0.017,-0.043 0.041,-0.081 0.073,-0.115c0.031,-0.033 0.068,-0.06 0.11,-0.079c0.042,-0.02 0.088,-0.03 0.139,-0.03c0.051,0 0.098,0.011 0.14,0.031c0.043,0.021 0.079,0.048 0.109,0.083c0.03,0.035 0.054,0.073 0.07,0.116c0.017,0.043 0.025,0.087 0.025,0.132c-0,0.047 -0.009,0.092 -0.026,0.135c-0.017,0.043 -0.041,0.081 -0.072,0.114c-0.032,0.034 -0.068,0.061 -0.111,0.08c-0.042,0.02 -0.088,0.029 -0.138,0.029Zm-0.206,-0.36c-0,0.031 0.004,0.061 0.014,0.089c0.009,0.029 0.023,0.054 0.04,0.076c0.018,0.023 0.04,0.04 0.065,0.053c0.026,0.013 0.055,0.02 0.088,0.02c0.034,-0 0.063,-0.007 0.089,-0.02c0.026,-0.014 0.047,-0.032 0.065,-0.055c0.017,-0.023 0.03,-0.049 0.039,-0.077c0.009,-0.028 0.014,-0.057 0.014,-0.086c-0,-0.031 -0.005,-0.06 -0.015,-0.089c-0.009,-0.028 -0.023,-0.053 -0.041,-0.076c-0.017,-0.022 -0.039,-0.04 -0.065,-0.052c-0.025,-0.013 -0.054,-0.02 -0.086,-0.02c-0.034,0 -0.063,0.007 -0.089,0.021c-0.026,0.013 -0.047,0.031 -0.065,0.054c-0.017,0.022 -0.031,0.048 -0.04,0.076c-0.009,0.028 -0.013,0.057 -0.013,0.086Z" style="fill:#47394a;fill-rule:nonzero;"/></g><g transform="matrix(83.3333,0,0,83.3333,712.733,161.806)"><path d="M0.377,0.005c-0.052,0 -0.099,-0.01 -0.141,-0.03c-0.043,-0.02 -0.079,-0.047 -0.109,-0.082c-0.031,-0.034 -0.055,-0.073 -0.071,-0.116c-0.016,-0.043 -0.025,-0.087 -0.025,-0.132c0,-0.048 0.009,-0.093 0.027,-0.136c0.017,-0.043 0.041,-0.081 0.073,-0.115c0.031,-0.033 0.068,-0.06 0.11,-0.079c0.042,-0.02 0.088,-0.03 0.139,-0.03c0.051,0 0.098,0.011 0.14,0.031c0.043,0.021 0.079,0.048 0.109,0.083c0.03,0.035 0.054,0.073 0.07,0.116c0.017,0.043 0.025,0.087 0.025,0.132c-0,0.047 -0.009,0.092 -0.026,0.135c-0.017,0.043 -0.041,0.081 -0.072,0.114c-0.032,0.034 -0.068,0.061 -0.111,0.08c-0.042,0.02 -0.088,0.029 -0.138,0.029Zm-0.206,-0.36c-0,0.031 0.004,0.061 0.014,0.089c0.009,0.029 0.023,0.054 0.04,0.076c0.018,0.023 0.04,0.04 0.065,0.053c0.026,0.013 0.055,0.02 0.088,0.02c0.034,-0 0.063,-0.007 0.089,-0.02c0.026,-0.014 0.047,-0.032 0.065,-0.055c0.017,-0.023 0.03,-0.049 0.039,-0.077c0.009,-0.028 0.014,-0.057 0.014,-0.086c-0,-0.031 -0.005,-0.06 -0.015,-0.089c-0.009,-0.028 -0.023,-0.053 -0.041,-0.076c-0.017,-0.022 -0.039,-0.04 -0.065,-0.052c-0.025,-0.013 -0.054,-0.02 -0.086,-0.02c-0.034,0 -0.063,0.007 -0.089,0.021c-0.026,0.013 -0.047,0.031 -0.065,0.054c-0.017,0.022 -0.031,0.048 -0.04,0.076c-0.009,0.028 -0.013,0.057 -0.013,0.086Z" style="fill:#47394a;fill-rule:nonzero;"/></g><g transform="matrix(83.3333,0,0,83.3333,775.357,161.806)"><path d="M0.074,-0l0,-0.71l0.258,0c0.078,0 0.142,0.016 0.194,0.047c0.052,0.032 0.091,0.075 0.117,0.128c0.026,0.054 0.039,0.114 0.039,0.179c0,0.072 -0.014,0.135 -0.043,0.188c-0.029,0.053 -0.069,0.095 -0.122,0.124c-0.052,0.029 -0.114,0.044 -0.185,0.044l-0.258,-0Zm0.469,-0.356c-0,-0.046 -0.008,-0.086 -0.025,-0.121c-0.016,-0.036 -0.04,-0.063 -0.072,-0.083c-0.031,-0.02 -0.069,-0.029 -0.114,-0.029l-0.12,-0l-0,0.468l0.12,0c0.046,0 0.084,-0.01 0.115,-0.03c0.031,-0.021 0.055,-0.049 0.071,-0.085c0.017,-0.035 0.025,-0.076 0.025,-0.12Z" style="fill:#47394a;fill-rule:nonzero;"/></g><g transform="matrix(83.3333,0,0,83.3333,312.984,236.806)"><path d="M0.497,-0.524c-0.004,-0.005 -0.013,-0.011 -0.025,-0.019c-0.013,-0.008 -0.028,-0.015 -0.045,-0.023c-0.018,-0.008 -0.037,-0.014 -0.058,-0.019c-0.02,-0.006 -0.041,-0.009 -0.063,-0.009c-0.037,0 -0.066,0.007 -0.085,0.021c-0.019,0.014 -0.028,0.033 -0.028,0.059c-0,0.019 0.006,0.035 0.018,0.046c0.012,0.011 0.03,0.021 0.054,0.029c0.024,0.008 0.054,0.016 0.09,0.026c0.047,0.011 0.087,0.026 0.122,0.042c0.034,0.016 0.06,0.037 0.079,0.064c0.018,0.026 0.027,0.061 0.027,0.104c0,0.038 -0.007,0.071 -0.021,0.097c-0.014,0.027 -0.033,0.049 -0.058,0.066c-0.024,0.017 -0.052,0.029 -0.084,0.036c-0.032,0.008 -0.065,0.012 -0.1,0.012c-0.035,-0 -0.071,-0.004 -0.106,-0.011c-0.036,-0.008 -0.07,-0.018 -0.102,-0.032c-0.033,-0.013 -0.063,-0.03 -0.09,-0.049l0.061,-0.119c0.006,0.006 0.017,0.014 0.032,0.024c0.015,0.009 0.034,0.019 0.056,0.028c0.022,0.01 0.046,0.018 0.072,0.025c0.026,0.007 0.052,0.01 0.079,0.01c0.038,0 0.066,-0.006 0.085,-0.019c0.019,-0.012 0.029,-0.031 0.029,-0.054c-0,-0.021 -0.008,-0.038 -0.023,-0.05c-0.015,-0.012 -0.037,-0.023 -0.064,-0.032c-0.028,-0.009 -0.06,-0.018 -0.097,-0.029c-0.045,-0.012 -0.082,-0.027 -0.112,-0.043c-0.03,-0.015 -0.053,-0.035 -0.067,-0.059c-0.015,-0.024 -0.022,-0.054 -0.022,-0.09c-0,-0.049 0.011,-0.089 0.034,-0.123c0.024,-0.033 0.055,-0.058 0.094,-0.075c0.04,-0.017 0.083,-0.025 0.131,-0.025c0.033,-0 0.065,0.003 0.095,0.011c0.029,0.007 0.057,0.017 0.083,0.029c0.026,0.012 0.049,0.025 0.07,0.039l-0.061,0.112Z" style="fill:#ee9d5d;fill-rule:nonzero;"/></g><g transform="matrix(83.3333,0,0,83.3333,363.686,236.806)"><path d="M0.377,0.005c-0.052,0 -0.099,-0.01 -0.141,-0.03c-0.043,-0.02 -0.079,-0.047 -0.109,-0.082c-0.031,-0.034 -0.055,-0.073 -0.071,-0.116c-0.016,-0.043 -0.025,-0.087 -0.025,-0.132c0,-0.048 0.009,-0.093 0.027,-0.136c0.017,-0.043 0.041,-0.081 0.073,-0.115c0.031,-0.033 0.068,-0.06 0.11,-0.079c0.042,-0.02 0.088,-0.03 0.139,-0.03c0.051,0 0.098,0.011 0.14,0.031c0.043,0.021 0.079,0.048 0.109,0.083c0.03,0.035 0.054,0.073 0.07,0.116c0.017,0.043 0.025,0.087 0.025,0.132c-0,0.047 -0.009,0.092 -0.026,0.135c-0.017,0.043 -0.041,0.081 -0.072,0.114c-0.032,0.034 -0.068,0.061 -0.111,0.08c-0.042,0.02 -0.088,0.029 -0.138,0.029Zm-0.206,-0.36c-0,0.031 0.004,0.061 0.014,0.089c0.009,0.029 0.023,0.054 0.04,0.076c0.018,0.023 0.04,0.04 0.065,0.053c0.026,0.013 0.055,0.02 0.088,0.02c0.034,-0 0.063,-0.007 0.089,-0.02c0.026,-0.014 0.047,-0.032 0.065,-0.055c0.017,-0.023 0.03,-0.049 0.039,-0.077c0.009,-0.028 0.014,-0.057 0.014,-0.086c-0,-0.031 -0.005,-0.06 -0.015,-0.089c-0.009,-0.028 -0.023,-0.053 -0.041,-0.076c-0.017,-0.022 -0.039,-0.04 -0.065,-0.052c-0.025,-0.013 -0.054,-0.02 -0.086,-0.02c-0.034,0 -0.063,0.007 -0.089,0.021c-0.026,0.013 -0.047,0.031 -0.065,0.054c-0.017,0.022 -0.031,0.048 -0.04,0.076c-0.009,0.028 -0.013,0.057 -0.013,0.086Z" style="fill:#ee9d5d;fill-rule:nonzero;"/></g><g transform="matrix(83.3333,0,0,83.3333,426.31,236.806)"><path d="M0.074,-0l0,-0.71l0.138,0l-0,0.589l0.362,0l0,0.121l-0.5,-0Z" style="fill:#ee9d5d;fill-rule:nonzero;"/></g><g transform="matrix(83.3333,0,0,83.3333,473.082,236.806)"><path d="M0.375,0.005c-0.057,0 -0.105,-0.009 -0.145,-0.028c-0.039,-0.02 -0.071,-0.046 -0.095,-0.079c-0.025,-0.033 -0.043,-0.071 -0.054,-0.114c-0.011,-0.042 -0.017,-0.086 -0.017,-0.132l0,-0.362l0.138,0l-0,0.362c-0,0.029 0.003,0.058 0.008,0.086c0.006,0.027 0.016,0.052 0.029,0.074c0.014,0.022 0.031,0.039 0.053,0.052c0.022,0.013 0.05,0.019 0.082,0.019c0.034,-0 0.061,-0.007 0.083,-0.019c0.023,-0.013 0.04,-0.031 0.053,-0.053c0.014,-0.022 0.023,-0.047 0.029,-0.075c0.006,-0.027 0.009,-0.055 0.009,-0.084l0,-0.362l0.137,0l0,0.362c0,0.048 -0.006,0.094 -0.017,0.137c-0.012,0.043 -0.031,0.08 -0.056,0.113c-0.025,0.032 -0.057,0.057 -0.096,0.076c-0.039,0.018 -0.086,0.027 -0.141,0.027Z" style="fill:#ee9d5d;fill-rule:nonzero;"/></g><g transform="matrix(83.3333,0,0,83.3333,535.2,236.806)"><path d="M0.605,-0.589l-0.227,-0l0,0.589l-0.137,-0l-0,-0.589l-0.227,-0l-0,-0.121l0.591,0l-0,0.121Z" style="fill:#ee9d5d;fill-rule:nonzero;"/></g><g transform="matrix(83.3333,0,0,83.3333,586.394,236.806)"><rect x="0.074" y="-0.71" width="0.137" height="0.71" style="fill:#ee9d5d;fill-rule:nonzero;"/></g><g transform="matrix(83.3333,0,0,83.3333,609.854,236.806)"><path d="M0.377,0.005c-0.052,0 -0.099,-0.01 -0.141,-0.03c-0.043,-0.02 -0.079,-0.047 -0.109,-0.082c-0.031,-0.034 -0.055,-0.073 -0.071,-0.116c-0.016,-0.043 -0.025,-0.087 -0.025,-0.132c0,-0.048 0.009,-0.093 0.027,-0.136c0.017,-0.043 0.041,-0.081 0.073,-0.115c0.031,-0.033 0.068,-0.06 0.11,-0.079c0.042,-0.02 0.088,-0.03 0.139,-0.03c0.051,0 0.098,0.011 0.14,0.031c0.043,0.021 0.079,0.048 0.109,0.083c0.03,0.035 0.054,0.073 0.07,0.116c0.017,0.043 0.025,0.087 0.025,0.132c-0,0.047 -0.009,0.092 -0.026,0.135c-0.017,0.043 -0.041,0.081 -0.072,0.114c-0.032,0.034 -0.068,0.061 -0.111,0.08c-0.042,0.02 -0.088,0.029 -0.138,0.029Zm-0.206,-0.36c-0,0.031 0.004,0.061 0.014,0.089c0.009,0.029 0.023,0.054 0.04,0.076c0.018,0.023 0.04,0.04 0.065,0.053c0.026,0.013 0.055,0.02 0.088,0.02c0.034,-0 0.063,-0.007 0.089,-0.02c0.026,-0.014 0.047,-0.032 0.065,-0.055c0.017,-0.023 0.03,-0.049 0.039,-0.077c0.009,-0.028 0.014,-0.057 0.014,-0.086c-0,-0.031 -0.005,-0.06 -0.015,-0.089c-0.009,-0.028 -0.023,-0.053 -0.041,-0.076c-0.017,-0.022 -0.039,-0.04 -0.065,-0.052c-0.025,-0.013 -0.054,-0.02 -0.086,-0.02c-0.034,0 -0.063,0.007 -0.089,0.021c-0.026,0.013 -0.047,0.031 -0.065,0.054c-0.017,0.022 -0.031,0.048 -0.04,0.076c-0.009,0.028 -0.013,0.057 -0.013,0.086Z" style="fill:#ee9d5d;fill-rule:nonzero;"/></g><g transform="matrix(83.3333,0,0,83.3333,672.478,236.806)"><path d="M0.212,-0.456l-0,0.456l-0.138,-0l0,-0.71l0.11,0l0.367,0.468l0,-0.467l0.138,-0l-0,0.709l-0.115,-0l-0.362,-0.456Z" style="fill:#ee9d5d;fill-rule:nonzero;"/></g><g transform="matrix(83.3333,0,0,83.3333,735.694,236.806)"><path d="M0.497,-0.524c-0.004,-0.005 -0.013,-0.011 -0.025,-0.019c-0.013,-0.008 -0.028,-0.015 -0.045,-0.023c-0.018,-0.008 -0.037,-0.014 -0.058,-0.019c-0.02,-0.006 -0.041,-0.009 -0.063,-0.009c-0.037,0 -0.066,0.007 -0.085,0.021c-0.019,0.014 -0.028,0.033 -0.028,0.059c-0,0.019 0.006,0.035 0.018,0.046c0.012,0.011 0.03,0.021 0.054,0.029c0.024,0.008 0.054,0.016 0.09,0.026c0.047,0.011 0.087,0.026 0.122,0.042c0.034,0.016 0.06,0.037 0.079,0.064c0.018,0.026 0.027,0.061 0.027,0.104c0,0.038 -0.007,0.071 -0.021,0.097c-0.014,0.027 -0.033,0.049 -0.058,0.066c-0.024,0.017 -0.052,0.029 -0.084,0.036c-0.032,0.008 -0.065,0.012 -0.1,0.012c-0.035,-0 -0.071,-0.004 -0.106,-0.011c-0.036,-0.008 -0.07,-0.018 -0.102,-0.032c-0.033,-0.013 -0.063,-0.03 -0.09,-0.049l0.061,-0.119c0.006,0.006 0.017,0.014 0.032,0.024c0.015,0.009 0.034,0.019 0.056,0.028c0.022,0.01 0.046,0.018 0.072,0.025c0.026,0.007 0.052,0.01 0.079,0.01c0.038,0 0.066,-0.006 0.085,-0.019c0.019,-0.012 0.029,-0.031 0.029,-0.054c-0,-0.021 -0.008,-0.038 -0.023,-0.05c-0.015,-0.012 -0.037,-0.023 -0.064,-0.032c-0.028,-0.009 -0.06,-0.018 -0.097,-0.029c-0.045,-0.012 -0.082,-0.027 -0.112,-0.043c-0.03,-0.015 -0.053,-0.035 -0.067,-0.059c-0.015,-0.024 -0.022,-0.054 -0.022,-0.09c-0,-0.049 0.011,-0.089 0.034,-0.123c0.024,-0.033 0.055,-0.058 0.094,-0.075c0.04,-0.017 0.083,-0.025 0.131,-0.025c0.033,-0 0.065,0.003 0.095,0.011c0.029,0.007 0.057,0.017 0.083,0.029c0.026,0.012 0.049,0.025 0.07,0.039l-0.061,0.112Z" style="fill:#ee9d5d;fill-rule:nonzero;"/></g><g transform="matrix(83.3333,0,0,83.3333,786.745,236.806)"></g></g></g><path d="M99.355,638.545c-107.037,-309.446 107.838,-608.888 419.629,-608.892c294.663,0 525.992,304.446 410.275,608.892" style="fill:none;fill-rule:nonzero;stroke:#47394a;stroke-width:8.33px;stroke-linecap:round;stroke-linejoin:round;"/><path d="M998.306,462.481c-0,21.338 -17.3,38.638 -38.638,38.638c-21.337,-0 -38.637,-17.3 -38.637,-38.638c-0,-21.337 17.3,-38.637 38.637,-38.637c21.338,-0 38.638,17.3 38.638,38.637" style="fill:#ee9d5d;fill-rule:nonzero;"/><path d="M998.306,462.481c-0,-21.324 -17.313,-38.637 -38.638,-38.637c-21.324,-0 -38.637,17.313 -38.637,38.637c-0,21.325 17.313,38.638 38.637,38.638c21.325,-0 38.638,-17.313 38.638,-38.638Z" style="fill:none;stroke:#fff;stroke-width:12.5px;"/><path d="M110.164,462.481c-0,21.338 -17.3,38.638 -38.638,38.638c-21.337,-0 -38.637,-17.3 -38.637,-38.638c-0,-21.337 17.3,-38.637 38.637,-38.637c21.338,-0 38.638,17.3 38.638,38.637" style="fill:#ee9d5d;fill-rule:nonzero;"/><path d="M110.164,462.481c-0,-21.324 -17.313,-38.637 -38.638,-38.637c-21.324,-0 -38.637,17.313 -38.637,38.637c-0,21.325 17.313,38.638 38.637,38.638c21.325,-0 38.638,-17.313 38.638,-38.638Z" style="fill:none;stroke:#fff;stroke-width:12.5px;"/></g></g></svg>